# xmcd CD database file
#
# Track frame offsets:
#	150
#	11449
#	27926
#	46369
#	61254
#	65824
#	85184
#	98353
#	120099
#	128880
#	147575
#	163731
#
# Disc length: 2296 seconds
#
# Revision: 0
# Processed by: cddbd v1.5.2PL0 Copyright (c) Steve Scherf et al.
# Submitted via: CDex 1.51
#
DISCID=9808f60c
DTITLE=Bob Downes - Let Your Mind Space Out
DYEAR=2017
DGENRE=Jazz
TTITLE0=Let your Mind Space Out
TTITLE1=Genie
TTITLE2=Thelonious
TTITLE3=On the Run
TTITLE4=Predator
TTITLE5=Land of the Red Man
TTITLE6=Magdalena Jetelova
TTITLE7=Chant
TTITLE8=Feelin' Good
TTITLE9=Supernatural Being
TTITLE10=Him Bin Go
TTITLE11=Going on a Jouney
EXTD=YEAR: 2017
EXTT0=
EXTT1=
EXTT2=
EXTT3=
EXTT4=
EXTT5=
EXTT6=
EXTT7=
EXTT8=
EXTT9=
EXTT10=
EXTT11=
PLAYORDER=
